<svg xmlns="http://www.w3.org/2000/svg" viewBox="0 0 512 512" width="512" height="512">
  <rect width="512" height="512" rx="100" fill="#0D0D12"/>
  <!-- Outer circle -->
  <circle cx="256" cy="256" r="180" fill="none" stroke="#6C3FA0" stroke-width="3" opacity="0.5"/>
  <circle cx="256" cy="256" r="150" fill="none" stroke="#8B5CF6" stroke-width="2"/>
  <!-- Pentagram -->
  <polygon points="256,106 296,226 406,226 316,286 346,406 256,336 166,406 196,286 106,226 216,226"
    fill="none" stroke="#A78BFA" stroke-width="3"/>
  <!-- Inner circle -->
  <circle cx="256" cy="256" r="80" fill="none" stroke="#8B5CF6" stroke-width="2"/>
  <!-- Center hat silhouette -->
  <path d="M256 200 L285 290 L227 290 Z" fill="#8B5CF6"/>
  <rect x="220" y="286" width="72" height="10" rx="5" fill="#A78BFA"/>
  <!-- Glow dots at star points -->
  <circle cx="256" cy="106" r="5" fill="#FBBF24"/>
  <circle cx="406" cy="226" r="5" fill="#FBBF24" opacity="0.8"/>
  <circle cx="346" cy="406" r="5" fill="#FBBF24" opacity="0.6"/>
  <circle cx="166" cy="406" r="5" fill="#FBBF24" opacity="0.6"/>
  <circle cx="106" cy="226" r="5" fill="#FBBF24" opacity="0.8"/>
</svg>