<svg xmlns="http://www.w3.org/2000/svg" viewBox="0 0 512 512" width="512" height="512">
  <rect width="512" height="512" rx="100" fill="#0D0D12"/>
  <!-- Magic wand diagonal -->
  <line x1="150" y1="380" x2="340" y2="140" stroke="#6C3FA0" stroke-width="8" stroke-linecap="round"/>
  <line x1="150" y1="380" x2="340" y2="140" stroke="#A78BFA" stroke-width="4" stroke-linecap="round"/>
  <!-- Wand tip glow -->
  <circle cx="340" cy="140" r="20" fill="#8B5CF6" opacity="0.3"/>
  <circle cx="340" cy="140" r="10" fill="#FBBF24"/>
  <!-- Sparkles around tip -->
  <path d="M370 110 L374 100 L378 110 L388 106 L378 110 L374 120 L370 110 L360 106 Z" fill="#FBBF24"/>
  <path d="M310 100 L313 93 L316 100 L323 97 L316 100 L313 107 L310 100 L303 97 Z" fill="#FBBF24" opacity="0.7"/>
  <path d="M370 170 L373 163 L376 170 L383 167 L376 170 L373 177 L370 170 L363 167 Z" fill="#FBBF24" opacity="0.5"/>
  <!-- Terminal > at tip -->
  <text x="335" y="150" font-family="monospace" font-size="24" font-weight="bold" fill="#10B981" opacity="0.8">></text>
</svg>