<svg xmlns="http://www.w3.org/2000/svg" viewBox="0 0 512 512" width="512" height="512">
  <rect width="512" height="512" rx="100" fill="#0D0D12"/>
  <!-- Pixel art wizard hat -->
  <g fill="#6C3FA0">
    <!-- Tip -->
    <rect x="248" y="110" width="16" height="16"/>
    <rect x="240" y="126" width="32" height="16"/>
    <rect x="232" y="142" width="48" height="16"/>
    <rect x="224" y="158" width="64" height="16"/>
    <rect x="216" y="174" width="80" height="16"/>
    <rect x="208" y="190" width="96" height="16"/>
    <rect x="200" y="206" width="112" height="16"/>
    <rect x="192" y="222" width="128" height="16"/>
    <rect x="184" y="238" width="144" height="16"/>
    <rect x="176" y="254" width="160" height="16"/>
    <rect x="168" y="270" width="176" height="16"/>
    <rect x="160" y="286" width="192" height="16"/>
  </g>
  <!-- Brim -->
  <rect x="128" y="302" width="256" height="20" rx="2" fill="#4C1D95"/>
  <!-- Pixel star -->
  <rect x="256" y="180" width="8" height="8" fill="#FBBF24"/>
  <rect x="248" y="188" width="8" height="8" fill="#FBBF24"/>
  <rect x="264" y="188" width="8" height="8" fill="#FBBF24"/>
  <rect x="256" y="196" width="8" height="8" fill="#FBBF24"/>
</svg>